<svg width="1311" height="1311" viewBox="0 0 1311 1311" fill="none" xmlns="http://www.w3.org/2000/svg">
<circle cx="655.5" cy="655.5" r="655.5" fill="#0A0A0A"/>
<path d="M1037.97 991.48L1048.08 967.16L1020.82 901.88H1035.67L1055 951.8H1055.51L1074.84 901.88H1089.17L1052.05 991.48H1037.97Z" fill="#F5F5F5"/>
<path d="M959.058 991.48V980.216H990.674C994.77 980.216 997.074 977.912 997.074 973.816V957.176H996.562C992.082 963.832 984.146 967.928 975.698 967.928C958.034 967.928 946.77 954.744 946.77 934.392C946.77 914.168 958.034 901.112 975.698 901.112C984.53 901.112 992.85 905.208 997.202 911.736H997.714V901.88H1011.28V973.56C1011.28 985.208 1005.01 991.48 993.362 991.48H959.058ZM961.234 934.392C961.234 948.088 968.274 956.408 979.666 956.408C990.802 956.408 997.586 948.088 997.586 934.392C997.586 920.824 990.93 912.632 979.666 912.632C968.274 912.632 961.234 920.824 961.234 934.392Z" fill="#F5F5F5"/>
<path d="M904.91 967.928C885.454 967.928 872.27 954.488 872.27 934.648C872.27 914.68 885.582 901.112 904.91 901.112C924.494 901.112 937.806 914.68 937.806 934.648C937.806 954.488 924.494 967.928 904.91 967.928ZM886.734 934.648C886.734 948.216 893.518 956.408 904.91 956.408C916.302 956.408 923.342 948.216 923.342 934.648C923.342 920.952 916.43 912.632 904.91 912.632C893.518 912.632 886.734 920.952 886.734 934.648Z" fill="#F5F5F5"/>
<path d="M857.669 967.16C845.637 967.16 839.109 960.632 839.109 948.6V875H853.317V949.496C853.317 953.592 855.621 955.896 859.717 955.896H866.501V967.16H857.669Z" fill="#F5F5F5"/>
<path d="M793.41 967.928C773.954 967.928 760.77 954.488 760.77 934.648C760.77 914.68 774.082 901.112 793.41 901.112C812.994 901.112 826.306 914.68 826.306 934.648C826.306 954.488 812.994 967.928 793.41 967.928ZM775.234 934.648C775.234 948.216 782.018 956.408 793.41 956.408C804.802 956.408 811.842 948.216 811.842 934.648C811.842 920.952 804.93 912.632 793.41 912.632C782.018 912.632 775.234 920.952 775.234 934.648Z" fill="#F5F5F5"/>
<path d="M691.484 967.16V875H705.692V911.352H706.204C710.684 904.824 717.596 901.112 726.172 901.112C741.02 901.112 749.212 911.224 749.212 930.552V967.16H735.004V930.552C735.004 918.52 730.524 913.144 720.412 913.144C710.3 913.144 705.692 918.648 705.692 930.552V967.16H691.484Z" fill="#F5F5F5"/>
<path d="M665.341 967.16C653.309 967.16 646.781 960.632 646.781 948.6V913.144H634.365V901.88H642.941C645.757 901.88 647.421 900.216 647.421 897.4V882.68H660.989V901.88H678.013V913.144H660.989V949.496C660.989 953.592 663.293 955.896 667.389 955.896H678.013V967.16H665.341Z" fill="#F5F5F5"/>
<path d="M578.722 991.48L588.834 967.16L561.57 901.88H576.418L595.746 951.8H596.258L615.586 901.88H629.922L592.802 991.48H578.722Z" fill="#F5F5F5"/>
<path d="M459.5 967.16V877.56H480.108L505.196 947.704H505.708L530.412 877.56H551.276V967.16H536.812V897.656H536.3L512.108 967.16H498.412L474.22 897.656H473.708V967.16H459.5Z" fill="#F5F5F5"/>
<path d="M413.16 967.928C393.704 967.928 380.52 954.488 380.52 934.648C380.52 914.68 393.832 901.112 413.16 901.112C432.744 901.112 446.056 914.68 446.056 934.648C446.056 954.488 432.744 967.928 413.16 967.928ZM394.984 934.648C394.984 948.216 401.768 956.408 413.16 956.408C424.552 956.408 431.592 948.216 431.592 934.648C431.592 920.952 424.68 912.632 413.16 912.632C401.768 912.632 394.984 920.952 394.984 934.648Z" fill="#F5F5F5"/>
<path d="M311.35 967.16L336.182 934.008V933.496L313.142 901.88H329.654L344.374 923.384H344.886L359.606 901.88H375.606L352.822 932.6V933.112L377.398 967.16H360.886L344.502 943.096H343.99L327.35 967.16H311.35Z" fill="#F5F5F5"/>
<path d="M242 967.16V877.56H301.136V890.104H256.72V915.832H298.576V928.376H256.72V954.616H302.416V967.16H242Z" fill="#F5F5F5"/>
<path d="M294 373.183L308.929 401.571L358.692 418.269C380.256 432.185 425.706 462.354 434.995 471.705C446.607 483.394 468.171 541.84 469.829 558.539C471.156 571.898 494.711 590.823 506.322 598.616L507.981 708.827C506.875 709.94 503.337 714.839 498.028 725.526C492.72 736.213 498.028 746.678 501.346 750.574H549.45C561.062 744.451 585.28 730.869 589.261 725.526C593.242 720.182 595.343 704.374 595.896 697.138L609.166 620.324C613.036 614.758 622.436 602.957 629.071 600.285C637.365 596.946 647.318 615.314 650.635 620.324C653.289 624.332 653.953 673.203 653.953 697.138L629.071 725.526V750.574C647.318 750.574 691.109 749.906 720.303 747.234C749.498 744.562 751.267 720.516 748.502 708.827V616.984C753.479 617.541 767.081 618.988 781.678 620.324C796.275 621.66 815.406 650.938 823.147 665.41C825.359 679.326 828.455 706.823 823.147 705.487C817.839 704.151 801.03 722.743 793.289 732.205V750.574H954.19L972.436 732.205C983.052 721.518 986.812 704.374 987.365 697.138C989.577 667.08 994 600.619 994 575.237C994 543.51 977.412 491.744 967.46 471.705C957.507 451.667 935.943 419.939 912.72 401.571C894.142 386.876 854.111 379.862 836.417 378.192L609.166 373.183L507.981 319.747C508.534 315.294 509.308 304.05 507.981 294.699C506.654 285.347 503.005 283.01 501.346 283.01C498.028 281.34 488.408 278 476.464 278C464.521 278 457.112 296.925 454.9 306.388H405.137L362.009 341.455L294 344.795V373.183Z" fill="#C75050"/>
<ellipse cx="920.162" cy="712.177" rx="17.7215" ry="17.7215" fill="#FFF5EE"/>
<ellipse cx="545.054" cy="694.455" rx="17.7215" ry="17.7215" fill="#FFF5EE"/>
<ellipse cx="695.688" cy="706.27" rx="17.7215" ry="17.7215" fill="#FFF5EE"/>
<ellipse cx="775.434" cy="555.637" rx="17.7215" ry="17.7215" fill="#FFF5EE"/>
<ellipse cx="926.068" cy="502.473" rx="17.7215" ry="17.7215" fill="#FFF5EE"/>
<ellipse cx="775.434" cy="424.203" rx="17.7215" ry="17.7215" fill="#FFF5EE"/>
<ellipse cx="672.059" cy="483.275" rx="17.7215" ry="17.7215" fill="#FFF5EE"/>
<ellipse cx="506.658" cy="444.877" rx="17.7215" ry="17.7215" fill="#FFF5EE"/>
<ellipse cx="376.7" cy="379.899" rx="17.7215" ry="17.7215" fill="#FFF5EE"/>
<ellipse cx="480.076" cy="341.5" rx="17.7215" ry="17.7215" fill="#FFF5EE"/>
<path d="M381.132 378.422L475.647 342.979M478.6 342.979L502.229 434.54M505.182 438.971L670.583 483.274M672.06 483.274L772.482 418.295M773.959 418.295L926.068 498.042" stroke="#FFF5EE" stroke-width="4"/>
<path d="M669.107 483.275L543.579 694.456" stroke="#FFF5EE" stroke-width="4"/>
<path d="M503.704 440.447L545.054 694.455M695.687 700.362L672.059 484.751L773.957 554.16M918.683 712.177L926.067 503.949" stroke="#FFF5EE" stroke-width="4"/>
<path d="M926.068 503.949L773.958 555.637" stroke="#FFF5EE" stroke-width="4"/>
</svg>
